<svg width="113" height="59" viewBox="0 0 113 59" fill="none" xmlns="http://www.w3.org/2000/svg">
<g filter="url(#filter0_f_3_10)">
<mask id="path-1-inside-1_3_10" fill="white">
<path d="M6.35268 41.6912C9.70554 46.0194 14.7531 49.3836 20.744 51.2832C26.7348 53.1827 33.3486 53.5159 39.6008 52.2332C45.8529 50.9506 51.4091 48.1206 55.4422 44.1645C59.4753 40.2085 61.7696 35.338 61.9836 30.2781C62.1975 25.2181 60.3198 20.2394 56.6298 16.0829C52.9398 11.9265 47.6349 8.81464 41.5048 7.21064C35.3747 5.60664 28.7473 5.59626 22.6091 7.18104C16.4709 8.76583 11.1501 11.861 7.43892 16.0059L32 29.5L6.35268 41.6912Z"/>
</mask>
<path d="M6.35268 41.6912C9.70554 46.0194 14.7531 49.3836 20.744 51.2832C26.7348 53.1827 33.3486 53.5159 39.6008 52.2332C45.8529 50.9506 51.4091 48.1206 55.4422 44.1645C59.4753 40.2085 61.7696 35.338 61.9836 30.2781C62.1975 25.2181 60.3198 20.2394 56.6298 16.0829C52.9398 11.9265 47.6349 8.81464 41.5048 7.21064C35.3747 5.60664 28.7473 5.59626 22.6091 7.18104C16.4709 8.76583 11.1501 11.861 7.43892 16.0059L32 29.5L6.35268 41.6912Z" stroke="#6A00FF" stroke-width="18" mask="url(#path-1-inside-1_3_10)"/>
</g>
<path d="M48.4219 35.668V38H39.8555V35.668H48.4219ZM40.6758 20.9375V38H37.7344V20.9375H40.6758ZM51.315 31.8008V31.5312C51.315 30.6172 51.4478 29.7695 51.7134 28.9883C51.9791 28.1992 52.3619 27.5156 52.8619 26.9375C53.3697 26.3516 53.9869 25.8984 54.7134 25.5781C55.4478 25.25 56.2759 25.0859 57.1978 25.0859C58.1275 25.0859 58.9556 25.25 59.6822 25.5781C60.4166 25.8984 61.0377 26.3516 61.5455 26.9375C62.0533 27.5156 62.44 28.1992 62.7056 28.9883C62.9713 29.7695 63.1041 30.6172 63.1041 31.5312V31.8008C63.1041 32.7148 62.9713 33.5625 62.7056 34.3438C62.44 35.125 62.0533 35.8086 61.5455 36.3945C61.0377 36.9727 60.4205 37.4258 59.6939 37.7539C58.9673 38.0742 58.1431 38.2344 57.2213 38.2344C56.2916 38.2344 55.4595 38.0742 54.7252 37.7539C53.9986 37.4258 53.3814 36.9727 52.8736 36.3945C52.3658 35.8086 51.9791 35.125 51.7134 34.3438C51.4478 33.5625 51.315 32.7148 51.315 31.8008ZM54.1392 31.5312V31.8008C54.1392 32.3711 54.1978 32.9102 54.315 33.418C54.4322 33.9258 54.6158 34.3711 54.8658 34.7539C55.1158 35.1367 55.4361 35.4375 55.8267 35.6562C56.2173 35.875 56.6822 35.9844 57.2213 35.9844C57.7447 35.9844 58.1978 35.875 58.5806 35.6562C58.9713 35.4375 59.2916 35.1367 59.5416 34.7539C59.7916 34.3711 59.9752 33.9258 60.0923 33.418C60.2173 32.9102 60.2798 32.3711 60.2798 31.8008V31.5312C60.2798 30.9688 60.2173 30.4375 60.0923 29.9375C59.9752 29.4297 59.7877 28.9805 59.5298 28.5898C59.2798 28.1992 58.9595 27.8945 58.5689 27.6758C58.1861 27.4492 57.7291 27.3359 57.1978 27.3359C56.6666 27.3359 56.2056 27.4492 55.815 27.6758C55.4322 27.8945 55.1158 28.1992 54.8658 28.5898C54.6158 28.9805 54.4322 29.4297 54.315 29.9375C54.1978 30.4375 54.1392 30.9688 54.1392 31.5312ZM69.7472 27.7344V38H66.923V25.3203H69.6183L69.7472 27.7344ZM73.6261 25.2383L73.6027 27.8633C73.4308 27.832 73.2433 27.8086 73.0402 27.793C72.8448 27.7773 72.6495 27.7695 72.4542 27.7695C71.9698 27.7695 71.5441 27.8398 71.1769 27.9805C70.8097 28.1133 70.5011 28.3086 70.2511 28.5664C70.0089 28.8164 69.8214 29.1211 69.6886 29.4805C69.5558 29.8398 69.4777 30.2422 69.4542 30.6875L68.8097 30.7344C68.8097 29.9375 68.8878 29.1992 69.0441 28.5195C69.2003 27.8398 69.4347 27.2422 69.7472 26.7266C70.0675 26.2109 70.4659 25.8086 70.9425 25.5195C71.4269 25.2305 71.9855 25.0859 72.6183 25.0859C72.7902 25.0859 72.9738 25.1016 73.1691 25.1328C73.3722 25.1641 73.5245 25.1992 73.6261 25.2383ZM79.6716 27.7344V38H76.8473V25.3203H79.5427L79.6716 27.7344ZM83.5505 25.2383L83.527 27.8633C83.3552 27.832 83.1677 27.8086 82.9645 27.793C82.7692 27.7773 82.5739 27.7695 82.3786 27.7695C81.8942 27.7695 81.4684 27.8398 81.1012 27.9805C80.7341 28.1133 80.4255 28.3086 80.1755 28.5664C79.9333 28.8164 79.7458 29.1211 79.613 29.4805C79.4802 29.8398 79.402 30.2422 79.3786 30.6875L78.7341 30.7344C78.7341 29.9375 78.8122 29.1992 78.9684 28.5195C79.1247 27.8398 79.3591 27.2422 79.6716 26.7266C79.9919 26.2109 80.3903 25.8086 80.8669 25.5195C81.3512 25.2305 81.9098 25.0859 82.5427 25.0859C82.7145 25.0859 82.8981 25.1016 83.0934 25.1328C83.2966 25.1641 83.4489 25.1992 83.5505 25.2383ZM93.4866 35.457V29.4102C93.4866 28.957 93.4045 28.5664 93.2405 28.2383C93.0764 27.9102 92.8264 27.6562 92.4905 27.4766C92.1623 27.2969 91.7483 27.207 91.2483 27.207C90.7873 27.207 90.3889 27.2852 90.053 27.4414C89.717 27.5977 89.4553 27.8086 89.2678 28.0742C89.0803 28.3398 88.9866 28.6406 88.9866 28.9766H86.1741C86.1741 28.4766 86.2952 27.9922 86.5373 27.5234C86.7795 27.0547 87.1311 26.6367 87.592 26.2695C88.053 25.9023 88.6038 25.6133 89.2444 25.4023C89.885 25.1914 90.6038 25.0859 91.4006 25.0859C92.3538 25.0859 93.1975 25.2461 93.9319 25.5664C94.6741 25.8867 95.2561 26.3711 95.678 27.0195C96.1077 27.6602 96.3225 28.4648 96.3225 29.4336V35.0703C96.3225 35.6484 96.3616 36.168 96.4397 36.6289C96.5256 37.082 96.6467 37.4766 96.803 37.8125V38H93.9084C93.7756 37.6953 93.6702 37.3086 93.592 36.8398C93.5217 36.3633 93.4866 35.9023 93.4866 35.457ZM93.8967 30.2891L93.9202 32.0352H91.8928C91.3694 32.0352 90.9084 32.0859 90.51 32.1875C90.1116 32.2812 89.7795 32.4219 89.5139 32.6094C89.2483 32.7969 89.0491 33.0234 88.9163 33.2891C88.7834 33.5547 88.717 33.8555 88.717 34.1914C88.717 34.5273 88.7952 34.8359 88.9514 35.1172C89.1077 35.3906 89.3342 35.6055 89.6311 35.7617C89.9358 35.918 90.303 35.9961 90.7327 35.9961C91.3108 35.9961 91.8147 35.8789 92.2444 35.6445C92.6819 35.4023 93.0256 35.1094 93.2756 34.7656C93.5256 34.4141 93.6584 34.082 93.6741 33.7695L94.5881 35.0234C94.4944 35.3438 94.3342 35.6875 94.1077 36.0547C93.8811 36.4219 93.5842 36.7734 93.217 37.1094C92.8577 37.4375 92.4241 37.707 91.9163 37.918C91.4163 38.1289 90.8381 38.2344 90.1819 38.2344C89.3538 38.2344 88.6155 38.0703 87.967 37.7422C87.3186 37.4062 86.8108 36.957 86.4436 36.3945C86.0764 35.8242 85.8928 35.1797 85.8928 34.4609C85.8928 33.7891 86.0178 33.1953 86.2678 32.6797C86.5256 32.1562 86.9006 31.7188 87.3928 31.3672C87.8928 31.0156 88.5022 30.75 89.2209 30.5703C89.9397 30.3828 90.76 30.2891 91.6819 30.2891H93.8967ZM103.516 28.0273V38H100.692V25.3203H103.352L103.516 28.0273ZM103.013 31.1914L102.098 31.1797C102.106 30.2812 102.231 29.457 102.473 28.707C102.723 27.957 103.067 27.3125 103.505 26.7734C103.95 26.2344 104.481 25.8203 105.098 25.5312C105.716 25.2344 106.403 25.0859 107.161 25.0859C107.77 25.0859 108.321 25.1719 108.813 25.3438C109.313 25.5078 109.739 25.7773 110.091 26.1523C110.45 26.5273 110.723 27.0156 110.911 27.6172C111.098 28.2109 111.192 28.9414 111.192 29.8086V38H108.356V29.7969C108.356 29.1875 108.266 28.707 108.087 28.3555C107.915 27.9961 107.661 27.7422 107.325 27.5938C106.997 27.4375 106.587 27.3594 106.095 27.3594C105.61 27.3594 105.177 27.4609 104.794 27.6641C104.411 27.8672 104.087 28.1445 103.821 28.4961C103.563 28.8477 103.364 29.2539 103.223 29.7148C103.083 30.1758 103.013 30.668 103.013 31.1914Z" fill="white"/>
<path d="M3.85938 29.3008L11.6055 32.2656V35.043L1.72656 30.6836V28.8438L3.85938 29.3008ZM11.6055 26.875L3.85938 29.8867L1.72656 30.2969V28.457L11.6055 24.1094V26.875ZM19.922 19.9375L13.2775 38.4648H11.0627L17.7189 19.9375H19.922ZM27.6292 29.7695L19.7425 26.8281V24.0977L29.8675 28.4453V30.2969L27.6292 29.7695ZM19.7425 32.3008L27.6527 29.3008L29.8675 28.832V30.6719L19.7425 35.0312V32.3008Z" fill="white"/>
<defs>
<filter id="filter0_f_3_10" x="0.352676" y="0" width="67.6473" height="59" filterUnits="userSpaceOnUse" color-interpolation-filters="sRGB">
<feFlood flood-opacity="0" result="BackgroundImageFix"/>
<feBlend mode="normal" in="SourceGraphic" in2="BackgroundImageFix" result="shape"/>
<feGaussianBlur stdDeviation="3" result="effect1_foregroundBlur_3_10"/>
</filter>
</defs>
</svg>
