<svg width="71" height="72" viewBox="0 0 71 72" fill="none" xmlns="http://www.w3.org/2000/svg">
<circle cx="35" cy="36" r="35" fill="black"/>
<g filter="url(#filter0_f_5_9)">
<mask id="path-2-inside-1_5_9" fill="white">
<path d="M9.35268 51.5633C12.7055 57.0886 17.7531 61.3834 23.744 63.8083C29.7348 66.2332 36.3486 66.6586 42.6008 65.0212C48.8529 63.3837 54.4091 59.7709 58.4422 54.7207C62.4753 49.6704 64.7696 43.4528 64.9836 36.9933C65.1975 30.5338 63.3198 24.1779 59.6298 18.8718C55.9398 13.5657 50.6349 9.59316 44.5048 7.5455C38.3747 5.49784 31.7473 5.48459 25.6091 7.50771C19.4709 9.53084 14.1501 13.4822 10.4389 18.7735L35 36L9.35268 51.5633Z"/>
</mask>
<path d="M9.35268 51.5633C12.7055 57.0886 17.7531 61.3834 23.744 63.8083C29.7348 66.2332 36.3486 66.6586 42.6008 65.0212C48.8529 63.3837 54.4091 59.7709 58.4422 54.7207C62.4753 49.6704 64.7696 43.4528 64.9836 36.9933C65.1975 30.5338 63.3198 24.1779 59.6298 18.8718C55.9398 13.5657 50.6349 9.59316 44.5048 7.5455C38.3747 5.49784 31.7473 5.48459 25.6091 7.50771C19.4709 9.53084 14.1501 13.4822 10.4389 18.7735L35 36L9.35268 51.5633Z" stroke="#6A00FF" stroke-width="18" mask="url(#path-2-inside-1_5_9)"/>
</g>
<path d="M49.4219 41.668V44H40.8555V41.668H49.4219ZM41.6758 26.9375V44H38.7344V26.9375H41.6758Z" fill="white"/>
<path d="M4.85938 35.3008L12.6055 38.2656V41.043L2.72656 36.6836V34.8438L4.85938 35.3008ZM12.6055 32.875L4.85938 35.8867L2.72656 36.2969V34.457L12.6055 30.1094V32.875ZM20.922 25.9375L14.2775 44.4648H12.0627L18.7189 25.9375H20.922ZM28.6292 35.7695L20.7425 32.8281V30.0977L30.8675 34.4453V36.2969L28.6292 35.7695ZM20.7425 38.3008L28.6527 35.3008L30.8675 34.832V36.6719L20.7425 41.0312V38.3008Z" fill="white"/>
<defs>
<filter id="filter0_f_5_9" x="3.35268" y="0" width="67.6473" height="72" filterUnits="userSpaceOnUse" color-interpolation-filters="sRGB">
<feFlood flood-opacity="0" result="BackgroundImageFix"/>
<feBlend mode="normal" in="SourceGraphic" in2="BackgroundImageFix" result="shape"/>
<feGaussianBlur stdDeviation="3" result="effect1_foregroundBlur_5_9"/>
</filter>
</defs>
</svg>
